<!DOCTYPE svg PUBLIC "-//W3C//DTD SVG 1.1//EN" "http://www.w3.org/Graphics/SVG/1.1/DTD/svg11.dtd">

<svg xmlns="http://www.w3.org/2000/svg" viewBox="0 0 512 512">

<path d="M237.5 1.106c-85.642 8.989-152.674 76.976-161.452 163.75C75.365 171.605 75 231.04 75 335.492v160.28l2.784 5.329a19.263 19.263 0 0 0 34.432 0l2.784-5.329V336h205.772l5.329-2.784a19.263 19.263 0 0 0 0-34.432L320.772 296H114.896l.372-67.25c.33-59.644.57-68.098 2.121-74.75C131.236 94.599 171.861 54.667 231.5 41.835c9.529-2.051 41.03-1.712 51.5.554 50.816 10.996 90.599 46.095 106.489 93.951 7.499 22.582 6.865 6.195 7.469 193.16l.542 168 2.735 4.653c7.737 13.161 26.865 12.569 33.981-1.052l2.784-5.329v-160.28c0-164.715-.141-171.327-4.067-190.743C414.695 54.546 328.93-8.491 237.5 1.106" fill-rule="evenodd"/>

</svg>